<svg width="1008" height="260" viewBox="0 0 1008 260" fill="none" xmlns="http://www.w3.org/2000/svg">
<g clip-path="url(#clip0_4_34)">
<path d="M0 16C0 7.16344 7.16344 0 16 0H992C1000.84 0 1008 7.16344 1008 16V244C1008 252.837 1000.84 260 992 260H16C7.16344 260 0 252.837 0 244V16Z" fill="#6FBDE4"/>
<circle cx="504" cy="130" r="459" fill="#90D0EE"/>
<circle cx="503.5" cy="129.5" r="406.5" fill="#BAE2F5"/>
<circle cx="503.5" cy="129.5" r="341.5" fill="#E3F4FB"/>
</g>
<defs>
<clipPath id="clip0_4_34">
<path d="M0 16C0 7.16344 7.16344 0 16 0H992C1000.84 0 1008 7.16344 1008 16V244C1008 252.837 1000.84 260 992 260H16C7.16344 260 0 252.837 0 244V16Z" fill="white"/>
</clipPath>
</defs>
</svg>
