<svg width="16" height="16" viewBox="0 0 16 16" fill="none" xmlns="http://www.w3.org/2000/svg">
<path d="M11.2 8.5325C11.2683 8.46117 11.3218 8.37707 11.3575 8.285C11.4325 8.10241 11.4325 7.8976 11.3575 7.715C11.3218 7.62294 11.2683 7.53883 11.2 7.4675L8.94998 5.2175C8.80875 5.07627 8.61721 4.99693 8.41748 4.99693C8.21776 4.99693 8.02621 5.07627 7.88498 5.2175C7.74376 5.35873 7.66441 5.55028 7.66441 5.75C7.66441 5.94973 7.74376 6.14127 7.88498 6.2825L8.85998 7.25H6.16748C5.96857 7.25 5.77781 7.32902 5.63715 7.46967C5.4965 7.61032 5.41748 7.80109 5.41748 8C5.41748 8.19891 5.4965 8.38968 5.63715 8.53033C5.77781 8.67098 5.96857 8.75 6.16748 8.75H8.85998L7.88498 9.7175C7.81469 9.78722 7.75889 9.87018 7.72081 9.96157C7.68274 10.053 7.66313 10.151 7.66313 10.25C7.66313 10.349 7.68274 10.447 7.72081 10.5384C7.75889 10.6298 7.81469 10.7128 7.88498 10.7825C7.95471 10.8528 8.03766 10.9086 8.12905 10.9467C8.22044 10.9847 8.31847 11.0044 8.41748 11.0044C8.51649 11.0044 8.61452 10.9847 8.70592 10.9467C8.79731 10.9086 8.88026 10.8528 8.94998 10.7825L11.2 8.5325ZM15.9175 8C15.9175 6.51664 15.4776 5.06659 14.6535 3.83323C13.8294 2.59986 12.6581 1.63856 11.2876 1.07091C9.91716 0.50325 8.40916 0.354725 6.95431 0.644114C5.49945 0.933503 4.16308 1.64781 3.11418 2.6967C2.06529 3.7456 1.35098 5.08197 1.06159 6.53683C0.772205 7.99168 0.92073 9.49968 1.48839 10.8701C2.05604 12.2406 3.01734 13.4119 4.25071 14.236C5.48408 15.0601 6.93412 15.5 8.41748 15.5C10.4066 15.5 12.3143 14.7098 13.7208 13.3033C15.1273 11.8968 15.9175 9.98913 15.9175 8ZM2.41748 8C2.41748 6.81331 2.76938 5.65328 3.42867 4.66658C4.08795 3.67989 5.02503 2.91085 6.12138 2.45673C7.21774 2.0026 8.42414 1.88378 9.58802 2.11529C10.7519 2.3468 11.821 2.91825 12.6601 3.75736C13.4992 4.59648 14.0707 5.66558 14.3022 6.82946C14.5337 7.99335 14.4149 9.19975 13.9608 10.2961C13.5066 11.3925 12.7376 12.3295 11.7509 12.9888C10.7642 13.6481 9.60417 14 8.41748 14C6.82618 14 5.30006 13.3679 4.17484 12.2426C3.04962 11.1174 2.41748 9.5913 2.41748 8Z" fill="#4272A1"/>
</svg>
