<svg width="15" height="16" viewBox="0 0 15 16" fill="none" xmlns="http://www.w3.org/2000/svg">
<path d="M10.2825 8.5325C10.3508 8.46117 10.4043 8.37707 10.44 8.285C10.515 8.10241 10.515 7.8976 10.44 7.715C10.4043 7.62294 10.3508 7.53883 10.2825 7.4675L8.0325 5.2175C7.89127 5.07627 7.69973 4.99693 7.5 4.99693C7.30028 4.99693 7.10873 5.07627 6.9675 5.2175C6.82627 5.35873 6.74693 5.55028 6.74693 5.75C6.74693 5.94973 6.82627 6.14127 6.9675 6.2825L7.9425 7.25H5.25C5.05109 7.25 4.86032 7.32902 4.71967 7.46967C4.57902 7.61032 4.5 7.80109 4.5 8C4.5 8.19891 4.57902 8.38968 4.71967 8.53033C4.86032 8.67098 5.05109 8.75 5.25 8.75H7.9425L6.9675 9.7175C6.89721 9.78722 6.84141 9.87018 6.80333 9.96157C6.76526 10.053 6.74565 10.151 6.74565 10.25C6.74565 10.349 6.76526 10.447 6.80333 10.5384C6.84141 10.6298 6.89721 10.7128 6.9675 10.7825C7.03722 10.8528 7.12018 10.9086 7.21157 10.9467C7.30296 10.9847 7.40099 11.0044 7.5 11.0044C7.59901 11.0044 7.69704 10.9847 7.78843 10.9467C7.87983 10.9086 7.96278 10.8528 8.0325 10.7825L10.2825 8.5325ZM15 8C15 6.51664 14.5601 5.06659 13.736 3.83323C12.9119 2.59986 11.7406 1.63856 10.3701 1.07091C8.99968 0.50325 7.49168 0.354725 6.03683 0.644114C4.58197 0.933503 3.2456 1.64781 2.1967 2.6967C1.14781 3.7456 0.433503 5.08197 0.144114 6.53683C-0.145275 7.99168 0.00324963 9.49968 0.570907 10.8701C1.13856 12.2406 2.09986 13.4119 3.33323 14.236C4.56659 15.0601 6.01664 15.5 7.5 15.5C9.48913 15.5 11.3968 14.7098 12.8033 13.3033C14.2098 11.8968 15 9.98913 15 8ZM1.5 8C1.5 6.81331 1.8519 5.65328 2.51119 4.66658C3.17047 3.67989 4.10755 2.91085 5.2039 2.45673C6.30026 2.0026 7.50666 1.88378 8.67054 2.11529C9.83443 2.3468 10.9035 2.91825 11.7426 3.75736C12.5818 4.59648 13.1532 5.66558 13.3847 6.82946C13.6162 7.99335 13.4974 9.19975 13.0433 10.2961C12.5892 11.3925 11.8201 12.3295 10.8334 12.9888C9.84673 13.6481 8.68669 14 7.5 14C5.9087 14 4.38258 13.3679 3.25736 12.2426C2.13214 11.1174 1.5 9.5913 1.5 8Z" fill="white"/>
</svg>
